<?xml version="1.0" encoding="UTF-8" standalone="no"?>
<!-- Created with Inkscape (http://www.inkscape.org/) -->

<svg
   version="1.1"
   id="svg2"
   width="4000"
   height="4000"
   viewBox="0 0 4000 4000"
   sodipodi:docname="01-02.eps"
   xmlns:inkscape="http://www.inkscape.org/namespaces/inkscape"
   xmlns:sodipodi="http://sodipodi.sourceforge.net/DTD/sodipodi-0.dtd"
   xmlns="http://www.w3.org/2000/svg"
   xmlns:svg="http://www.w3.org/2000/svg">
  <defs
     id="defs6" />
  <sodipodi:namedview
     id="namedview4"
     pagecolor="#ffffff"
     bordercolor="#000000"
     borderopacity="0.25"
     inkscape:showpageshadow="2"
     inkscape:pageopacity="0.0"
     inkscape:pagecheckerboard="0"
     inkscape:deskcolor="#d1d1d1" />
  <g
     id="g8"
     inkscape:groupmode="layer"
     inkscape:label="ink_ext_XXXXXX"
     transform="matrix(1.3333333,0,0,-1.3333333,0,4000)">
    <g
       id="g10"
       transform="scale(0.1)">
      <path
         d="M 30000,0 H 0 V 30000 H 30000 V 0"
         style="fill:#100f0d;fill-opacity:1;fill-rule:nonzero;stroke:none"
         id="path12" />
      <path
         d="m 10095.6,14175.4 h -528 l -679.98,926.9 -706.56,-983.9 V 16675 h 425.47 v -1223.2 l 881.29,1223.2 h 524.28 l -866.16,-1204.2 949.66,-1295.4"
         style="fill:#ffffff;fill-opacity:1;fill-rule:nonzero;stroke:none"
         id="path14" />
      <path
         d="m 11189.6,16272.3 c -151.9,0 -291.9,-38 -419.7,-114 -128,-76 -229.3,-179.2 -303.9,-309.6 -74.8,-130.4 -112.1,-271.6 -112.1,-423.5 0,-152 37.3,-293.2 112.1,-423.6 74.6,-130.5 175.9,-233.6 303.9,-309.6 127.8,-76 267.8,-114 419.7,-114 152,0 291.9,38 419.8,114 127.8,76 229.2,178.6 303.9,307.7 74.6,129.2 112,271 112,425.5 0,154.4 -37.4,296.3 -112,425.4 -74.7,129.2 -176.1,231.7 -303.9,307.7 -127.9,76 -267.8,114 -419.8,114 z m 0,-2119.7 c -227.9,0 -438.7,57 -632.5,170.9 -193.7,114 -347.6,268.4 -461.5,463.5 -113.98,195 -170.96,407.7 -170.96,638.2 0,230.4 56.98,443.1 170.96,638.2 113.9,194.9 267.8,349.4 461.5,463.4 193.8,114 404.6,170.9 632.5,170.9 227.9,0 438.8,-56.9 632.5,-170.9 193.7,-114 347.6,-268.5 461.6,-463.4 113.9,-195.1 170.9,-407.8 170.9,-638.2 0,-230.5 -57,-443.2 -170.9,-638.2 -114,-195.1 -267.9,-349.5 -461.6,-463.5 -193.7,-113.9 -404.6,-170.9 -632.5,-170.9"
         style="fill:#ffffff;fill-opacity:1;fill-rule:nonzero;stroke:none"
         id="path16" />
      <path
         d="m 13081.4,16245.7 v -672.4 h 372.2 c 149.4,0 268.4,20.3 357.1,60.8 55.7,22.8 103.8,59.5 144.4,110.2 40.4,50.6 60.7,106.3 60.7,167.1 0,83.6 -35.5,157 -106.3,220.3 -83.6,76 -197.6,114 -341.9,114 z m 839.5,-2070.3 -839.5,1101.6 v -1101.6 h -425.5 l -3.8,2499.6 h 915.5 c 121.5,0 236.1,-19.7 343.8,-58.9 107.6,-39.3 201.9,-95.6 283,-169.1 81,-70.9 143,-152.6 186.1,-245 43,-92.5 64.6,-189.3 64.6,-290.6 0,-154.5 -49.4,-296.3 -148.2,-425.5 -86.1,-108.9 -192.5,-187.4 -319.1,-235.5 -45.5,-17.7 -98.1,-32.9 -157.6,-45.6 -59.5,-12.7 -103.2,-19 -131.1,-19 l 759.8,-1010.4 h -528"
         style="fill:#ffffff;fill-opacity:1;fill-rule:nonzero;stroke:none"
         id="path18" />
      <path
         d="m 15109.8,15573.3 h 505.3 c 129.1,0 234.2,36.7 315.2,110.2 76,60.8 114,136.7 114,227.9 0,88.6 -38,164.6 -114,227.9 -83.5,70.9 -188.6,106.4 -315.2,106.4 h -505.3 z m -425.4,-1397.9 V 16675 h 930.7 c 111.4,0 218.4,-18.4 321,-55.1 102.6,-36.8 194.3,-89.3 275.4,-157.7 83.5,-73.5 148.2,-157.6 193.7,-252.6 45.6,-95 68.4,-194.4 68.4,-298.2 0,-106.4 -22.8,-206.4 -68.4,-300.1 -45.5,-93.7 -110.2,-178.5 -193.7,-254.5 -81.1,-68.4 -172.8,-121 -275.4,-157.7 -102.6,-36.7 -209.6,-55 -321,-55 h -505.3 l 3.8,-968.7 h -429.2"
         style="fill:#ffffff;fill-opacity:1;fill-rule:nonzero;stroke:none"
         id="path20" />
      <path
         d="m 17119.3,16245.7 v -672.4 h 372.3 c 149.4,0 268.4,20.3 357.1,60.8 55.6,22.8 103.8,59.5 144.3,110.2 40.5,50.6 60.8,106.3 60.8,167.1 0,83.6 -35.5,157 -106.4,220.3 -83.6,76 -197.5,114 -341.8,114 z m 839.5,-2070.3 -839.5,1101.6 v -1101.6 h -425.5 l -3.7,2499.6 h 915.5 c 121.5,0 236,-19.7 343.7,-58.9 107.6,-39.3 202,-95.6 283,-169.1 81.1,-70.9 143.1,-152.6 186.2,-245 43,-92.5 64.5,-189.3 64.5,-290.6 0,-154.5 -49.3,-296.3 -148.1,-425.5 -86.1,-108.9 -192.5,-187.4 -319.1,-235.5 -45.6,-17.7 -98.2,-32.9 -157.6,-45.6 -59.6,-12.7 -103.2,-19 -131.1,-19 l 759.7,-1010.4 h -528"
         style="fill:#ffffff;fill-opacity:1;fill-rule:nonzero;stroke:none"
         id="path22" />
      <path
         d="M 18722.3,14175.4 V 16675 h 1580.3 v -429.3 h -1151 v -604 h 866.1 v -429.3 h -866.1 v -611.6 h 1151 v -425.4 h -1580.3"
         style="fill:#ffffff;fill-opacity:1;fill-rule:nonzero;stroke:none"
         id="path24" />
      <path
         d="m 21624.6,15637.9 -319.2,-691.4 h 623.1 z m -516.7,-1120.6 -159.5,-341.9 h -471.1 L 21636,16675 22737.6,14175.4 h -467.3 l -151.9,341.9 h -1010.5"
         style="fill:#ffffff;fill-opacity:1;fill-rule:nonzero;stroke:none"
         id="path26" />
      <path
         d="m 23341.6,14600.8 h 357.1 c 113.9,0 219.6,20.9 317.2,62.7 97.4,41.8 181.6,101.9 252.6,180.5 68.3,75.9 120.9,164.5 157.6,265.9 36.7,101.2 55.1,207.6 55.1,319.1 0,108.8 -18.4,213.3 -55.1,313.4 -36.7,100 -89.3,188 -157.6,264 -139.3,159.5 -329.3,239.3 -569.8,239.3 h -357.1 z m 357.1,-425.4 h -782.6 V 16675 h 782.6 c 174.7,0 338.6,-33 491.9,-98.8 153.2,-65.9 285.5,-160.9 397,-284.9 103.8,-114 182.9,-245.7 237.4,-395.1 54.4,-149.4 81.7,-305.2 81.7,-467.2 0,-164.7 -27.3,-321.7 -81.7,-471.1 -54.5,-149.4 -133.6,-282.4 -237.4,-398.8 -111.5,-124.2 -243.8,-219.1 -397,-285 -153.3,-65.8 -317.2,-98.7 -491.9,-98.7"
         style="fill:#ffffff;fill-opacity:1;fill-rule:nonzero;stroke:none"
         id="path28" />
      <path
         d="m 26019.7,15463.1 752.1,1211.9 h 512.9 l -1052.3,-1663.9 v -835.7 h -425.5 v 835.7 L 24766.1,16675 h 509 l 744.6,-1211.9"
         style="fill:#ffffff;fill-opacity:1;fill-rule:nonzero;stroke:none"
         id="path30" />
      <path
         d="m 6903.21,13822.3 c 52.37,-53.3 106.65,-104.8 166.73,-163.7 -19.11,-3.1 -27.3,-5.6 -35.5,-5.6 -224.4,-0.3 -448.82,-1.8 -673.16,1.7 -29.49,0.5 -131.08,99.3 -149.22,117.4 -330.05,329.2 -660.99,657.6 -991.71,986.2 -96.3,95.7 -191.7,192.3 -289.41,286.5 -19.04,18.4 -15.69,28.7 -2.99,46.4 109.77,152.5 219.01,305.4 328.22,458.3 15.74,22.1 34.45,31.2 63.39,30.9 172.29,-1.8 344.61,0.1 516.91,-1.2 231.63,-1.7 399.75,103.4 507.44,304.6 49.62,92.7 58.6,194.2 44.58,299.2 -23.8,178.1 -125.44,300.3 -273.69,388.5 -78.03,46.4 -165.6,63.2 -256.54,63.1 -574.35,-0.2 -1148.7,0.1 -1723.05,-0.7 -30.09,0 -52.01,7.3 -73.27,29.2 -151.73,156.3 -304.64,311.5 -457.04,467.1 -7.92,8.1 -14.66,17.4 -27.68,32.9 21.47,0 34.17,0 46.87,0 743.98,0 1487.98,1.8 2231.95,-0.7 433.7,-1.4 748.47,-207.8 954.08,-582.4 91.75,-167.1 116.36,-352 104.48,-542 -24.5,-391.8 -225.41,-671.5 -555.69,-864.5 -158.72,-92.7 -337,-119.5 -519.11,-120.8 -51.39,-0.4 -102.8,-0.1 -154.19,-0.1 -2.99,-5.1 -5.98,-10.2 -8.96,-15.4 51.71,-48.4 104.68,-95.6 154.94,-145.6 255.94,-254.1 987.52,-983.6 1071.62,-1069.3"
         style="fill:#ffffff;fill-opacity:1;fill-rule:nonzero;stroke:none"
         id="path32" />
      <path
         d="m 5990.65,13709.8 c -434.24,434.8 -868.36,869.7 -1303.46,1303.6 -26.83,26.8 -30.32,44.6 -6.66,76.1 86.92,115.6 171.23,233.2 255.52,350.8 191.82,267.5 383.07,535.5 574.48,803.3 45.41,63.6 90.55,127.3 140.51,197.5 -205.93,0 -402.27,-0.7 -598.59,0.8 -29.13,0.2 -46.58,-10.2 -62.14,-32.4 -92.35,-131.6 -184.83,-263.2 -278.1,-394.3 -276.59,-388.5 -553.55,-776.8 -830.49,-1165.1 -12.51,-17.5 -26.29,-34.1 -39.48,-51.2 l -10.65,3.5 c 0,15.3 0,30.5 0,45.8 0.01,577.1 -0.26,1154.2 0.76,1731.3 0.05,32 -8.79,55 -31.08,77.1 -85.61,84.7 -169.3,171.4 -255.02,256 -64.81,64 -131.62,126 -197.62,188.9 0,-35.2 -0.01,-73.7 0,-112.2 0.12,-1098.1 0.24,-2196.2 0.43,-3294.2 0,-11.4 0.95,-22.8 1.24,-34.2 h 287.85 c 13.34,4.5 26.5,12.5 33.51,22.1 125.75,172 249.61,345.4 373.74,518.7 92.13,128.5 183.77,257.4 276.01,385.9 28.36,39.5 29.79,39.3 65.21,3.8 297.57,-298.1 595.39,-595.9 892,-895 28.24,-28.4 55.65,-42.9 97.03,-41.5 92.06,3.3 184.31,1.1 276.49,1.1 126.6,0 253.19,0 389.01,0 -20.42,21.8 -34.97,38.3 -50.5,53.8"
         style="fill:#ffffff;fill-opacity:1;fill-rule:nonzero;stroke:none"
         id="path34" />
      <path
         d="m 2832.31,13072.2 h 4753.95 v 4671.7 H 2832.31 Z m 4870.94,-116.9 H 2715.32 v 4905.6 h 4987.93 v -4905.6"
         style="fill:#ffffff;fill-opacity:1;fill-rule:nonzero;stroke:none"
         id="path36" />
      <path
         d="M 2993.17,13233.1 H 7425.4 V 17583 H 2993.17 Z m 4519.97,-87.7 H 2905.42 v 4525.4 h 4607.72 v -4525.4"
         style="fill:#ffffff;fill-opacity:1;fill-rule:nonzero;stroke:none"
         id="path38" />
      <path
         d="M 27284.7,12139.1 H 2715.32 v 285.1 H 27284.7 v -285.1"
         style="fill:#ffffff;fill-opacity:1;fill-rule:nonzero;stroke:none"
         id="path40" />
    </g>
  </g>
</svg>
